<svg data-v-423bf9ae="" xmlns="http://www.w3.org/2000/svg" viewBox="0 0 146.08696167255917 60" class="font"><!----><!----><!----><g data-v-423bf9ae="" id="10b7109a-b8c1-4f87-b703-879dcbeea6ed" fill="#131619" transform="matrix(6.211180222334461,0,0,6.211180222334461,-5.21739072278811,-23.478261777976712)"><path d="M6.22 9.48L6.22 7.57L2.94 7.57L2.94 5.68L6.36 5.68L6.36 3.78L0.84 3.78L0.84 13.30L2.94 13.30L2.94 9.48ZM7.78 5.01C7.78 5.68 8.33 6.24 9.02 6.24C9.69 6.24 10.25 5.68 10.25 5.01C10.25 4.33 9.69 3.78 9.02 3.78C8.33 3.78 7.78 4.33 7.78 5.01ZM10.07 13.30L10.07 7.13L7.97 7.13L7.97 13.30ZM14.46 8.75L15.58 8.75L15.58 7.13L14.46 7.13L14.46 4.77L12.38 4.77L12.38 7.13L11.26 7.13L11.26 8.75L12.38 8.75L12.38 13.30L14.46 13.30ZM22.26 3.78L22.26 9.28C22.26 10.60 21.87 11.34 20.43 11.34C19.00 11.34 18.59 10.60 18.59 9.28L18.59 3.78L16.49 3.78L16.49 9.59C16.49 12.12 17.95 13.44 20.43 13.44C22.90 13.44 24.36 12.12 24.36 9.59L24.36 3.78Z"></path></g><!----><!----></svg>